PathFileType	4	(X/Y/Z)	C:/Users/opensim2020/Desktop/walking_exp_matlab/subject02_walking04_straight_04.trc	
DataRate	CameraRate	NumFrames	NumMarkers	Units	OrigDataRate	OrigDataStartFrame	OrigNumFrames	
100.00	100.00	4	42	mm	100.00	2924	239	
Frame#	Time	LFHD			RFHD			LBHD			RBHD			C7			T10			CLAV			STRN			RBAK			LSHO			LUPA			LELB			LFRM			LWRA			LWRB			LFIN			RSHO			RUPA			RELB			RFRM			RWRA			RWRB			RFIN			LASI			RASI			LPSI			RPSI			LTHI			LKNE			LTIB			LANK			LHEE			LTOE			RTHI			RKNE			RTIB			RANK			RHEE			RTOE			*39			*40			*41			
		X1	Y1	Z1	X2	Y2	Z2	X3	Y3	Z3	X4	Y4	Z4	X5	Y5	Z5	X6	Y6	Z6	X7	Y7	Z7	X8	Y8	Z8	X9	Y9	Z9	X10	Y10	Z10	X11	Y11	Z11	X12	Y12	Z12	X13	Y13	Z13	X14	Y14	Z14	X15	Y15	Z15	X16	Y16	Z16	X17	Y17	Z17	X18	Y18	Z18	X19	Y19	Z19	X20	Y20	Z20	X21	Y21	Z21	X22	Y22	Z22	X23	Y23	Z23	X24	Y24	Z24	X25	Y25	Z25	X26	Y26	Z26	X27	Y27	Z27	X28	Y28	Z28	X29	Y29	Z29	X30	Y30	Z30	X31	Y31	Z31	X32	Y32	Z32	X33	Y33	Z33	X34	Y34	Z34	X35	Y35	Z35	X36	Y36	Z36	X37	Y37	Z37	X38	Y38	Z38	X39	Y39	Z39	X40	Y40	Z40	X41	Y41	Z41	X42	Y42	Z42	

1	0.000	1410.84436	1003.19501	1739.05493	1270.14160	1019.69312	1713.13538	1437.19629	1132.46301	1665.80127	1299.18750	1160.41235	1639.49316	1360.37268	1200.68884	1527.33191	1338.54773	1261.02502	1252.21387	1383.16882	1065.59863	1451.84558	1379.22217	1017.73547	1280.26917	1287.25439	1257.87085	1355.31677	1544.96436	1147.25525	1500.11060	1626.61694	1164.37061	1301.41785	1642.74060	1158.99536	1158.29871	1654.24316	1106.44226	1034.26746	1627.78821	1005.14752	941.63580	1654.69250	1051.94177	923.92621	1657.82202	1009.70526	872.03894	1182.12695	1105.72913	1488.84070	1091.88062	1146.27783	1305.36731	1067.74976	1147.17212	1161.39087	1036.26196	1130.73035	1045.21423	1038.64404	1093.36914	913.55054	1011.20477	1142.76563	917.42480	1000.84863	1112.74634	851.64661	1495.77710	1059.29419	977.04742	1248.02966	1006.11633	981.97522	1377.70691	1247.78711	1029.94434	1262.85217	1229.03088	1035.89905	1549.77795	1138.28711	668.90997	1536.95728	1163.71631	485.38586	1513.38965	1318.40442	384.96384	1464.98901	1459.91382	224.14714	1400.26160	1477.34558	229.29161	1496.92273	1426.47034	72.13192	1178.72034	1029.43872	678.01569	1233.40222	1009.91479	471.67514	1229.06604	1039.75964	284.30295	1273.08911	1062.16077	94.52185	1325.24426	1104.62500	42.17938	1283.29248	909.36456	42.84422	1328.39392	1113.67944	1800.63464	-3357.53491	2845.78906	1033.92944			 
2	0.010	1410.71912	994.66327	1740.51477	1270.15417	1011.09644	1714.66870	1437.15527	1123.92651	1667.22791	1299.17078	1151.74280	1640.80029	1360.12512	1191.90247	1528.77698	1337.88086	1252.33862	1253.73193	1383.49243	1057.00427	1453.29065	1379.33850	1009.17755	1281.36719	1286.07178	1248.53528	1356.97339	1544.78601	1139.17847	1501.40759	1625.79089	1157.50293	1302.46106	1641.21899	1152.72388	1159.28699	1652.08496	1101.13733	1034.65039	1624.36487	1000.74323	940.83234	1652.01135	1047.46521	923.66919	1653.71838	1005.74854	870.93695	1182.12012	1095.94836	1490.17871	1091.23047	1135.17004	1306.72302	1066.44373	1135.39880	1162.67822	1035.57117	1117.17700	1046.47925	1039.05066	1078.22412	915.41620	1010.98352	1127.45605	918.57495	1000.67474	1096.06519	853.19989	1496.74219	1051.63245	978.87659	1247.78967	997.63318	982.70612	1376.19067	1239.52124	1031.16516	1261.75220	1220.28821	1037.32397	1551.09753	1122.97791	670.96765	1538.49146	1144.25024	487.43286	1511.89197	1298.53113	388.37180	1463.59790	1439.26245	226.16557	1399.24866	1458.33142	229.09340	1499.99414	1400.03137	76.39631	1178.74573	1023.58386	678.10217	1233.38672	1007.44843	471.37756	1229.38037	1039.02747	284.14581	1273.26001	1062.01794	94.33662	1325.70642	1104.50854	42.17078	1283.15320	909.27008	42.77757	1328.48914	1105.23022	1802.10596	-3360.18042	2845.06055	1033.88318			 
3	0.020	1411.10547	986.26874	1742.10132	1270.50488	1002.46899	1716.23853	1437.20068	1115.43250	1668.59167	1299.23291	1143.22449	1642.21436	1359.86157	1183.14661	1530.16504	1337.09485	1243.74792	1255.24866	1383.75037	1048.32117	1454.62109	1379.79565	1000.78674	1282.63098	1285.26758	1239.75928	1358.70764	1544.80078	1131.26904	1502.65930	1624.91650	1150.71790	1303.34851	1639.67981	1146.44055	1160.10474	1650.11816	1095.99646	1034.96277	1620.90161	996.91321	939.96265	1649.70154	1043.17969	923.46381	1649.91248	1002.17029	869.86511	1182.23914	1086.34631	1491.61377	1090.69629	1124.03918	1308.01868	1065.24731	1123.39087	1163.96301	1035.03882	1103.19141	1047.98083	1039.63757	1062.80469	917.50366	1010.51306	1111.59729	919.70422	1000.93097	1078.96155	855.04266	1497.82971	1044.03113	980.83527	1247.35144	989.25031	983.30646	1374.81543	1231.37317	1032.43665	1260.77527	1211.73193	1038.68091	1552.30786	1107.73730	673.23047	1539.95996	1125.16431	489.74139	1510.20532	1278.31042	391.16931	1462.13428	1418.35376	227.81569	1398.71082	1438.25513	228.13797	1502.87512	1372.81665	79.65436	1178.69385	1017.87396	677.98730	1233.32678	1005.30646	470.98593	1229.12964	1038.51770	284.30969	1273.50732	1061.92383	94.42336	1325.60596	1104.53870	42.56728	1283.02783	909.16711	42.69083	1328.22241	1096.61707	1803.32715	-3357.47900	2845.74292	1033.82581			 
4	0.030	1411.39868	977.91913	1743.50293	1270.78320	993.92261	1717.55835	1437.34656	1107.02307	1669.90979	1299.30530	1134.58337	1643.51782	1359.68250	1174.48450	1531.50891	1336.34399	1235.22400	1256.75220	1383.94409	1039.78076	1455.83826	1379.83655	992.31097	1283.67810	1284.29077	1230.62085	1360.16309	1544.98462	1123.46216	1503.85828	1624.07410	1143.98865	1304.10364	1638.22839	1140.34668	1160.80615	1648.32605	1091.02832	1035.24182	1617.82971	993.01129	939.06647	1647.68591	1039.20667	923.36023	1646.36511	998.89056	868.70093	1182.40369	1076.93066	1492.99744	1090.08142	1113.73560	1309.45264	1064.18591	1111.28662	1165.32837	1034.97644	1089.38281	1049.28918	1040.39685	1047.25415	919.77875	1010.64471	1095.40942	921.02808	1001.57202	1061.58801	856.99713	1498.47583	1036.28894	982.70099	1247.10620	981.10529	984.17798	1373.64697	1223.27161	1033.76282	1259.97009	1203.37207	1039.93774	1553.46716	1092.73523	675.71851	1541.25281	1106.30359	492.17279	1508.83752	1257.71619	393.07419	1462.05237	1396.15613	227.16336	1398.47632	1416.38794	226.23488	1506.03613	1345.84045	82.28240	1179.03516	1012.63190	677.95789	1233.19836	1003.15875	470.79266	1229.08032	1038.40149	284.40363	1273.78369	1061.83655	94.49363	1325.78906	1104.53845	42.72040	1282.94897	909.09094	42.65891	1328.51306	1088.14746	1804.71033	-3360.18018	2845.06030	1033.88672			 
